<svg width="947" height="254" viewBox="0 0 947 254" fill="none" xmlns="http://www.w3.org/2000/svg">
<path d="M527.34 65.458L556.594 116.79H533.365L513.72 81.95L503.396 93.849V116.79H483.326V35.347H503.396V62.445L526.482 35.347H553.586L527.34 65.458ZM567.634 75.926C567.634 52.987 585.994 34.344 608.941 34.344C631.881 34.344 650.243 52.987 650.243 75.926C650.243 98.867 631.882 117.51 608.941 117.51C585.994 117.51 567.634 98.867 567.634 75.926ZM630.163 76.352C630.163 63.881 621.269 53.27 608.799 53.27C596.606 53.27 587.713 63.881 587.713 76.352C587.713 88.83 596.606 100.014 608.799 100.014C621.27 100.014 630.163 88.83 630.163 76.352ZM677.204 94.134C682.071 96.718 687.956 100.014 699.43 100.014C705.455 100.014 710.616 98.006 710.616 94.565C710.616 84.815 670.75 86.107 670.75 58.863C670.75 43.664 681.362 34.345 700.429 34.345C709.462 34.345 718.214 36.494 725.54 40.51L718.93 56.715C715.348 55.71 705.164 53.271 700.867 53.271C691.546 53.271 690.825 57.138 690.825 58.148C690.825 69.185 730.686 69.475 730.686 94.421C730.686 109.189 718.648 117.51 701.436 117.51C692.12 117.51 679.502 115.213 670.035 108.617L677.204 94.134ZM679.204 12.406L689.246 0.220001L699.994 8.249L710.762 0.220001L720.798 12.406L699.994 27.028L679.204 12.406ZM752.491 35.347H772.57V116.79H752.491V35.347ZM868.359 103.599C860.323 114.634 848.426 117.511 835.664 117.511C812.572 117.511 794.796 98.868 794.796 75.927C794.796 52.988 813.147 34.345 836.385 34.345C847.853 34.345 861.473 39.217 868.063 47.967L855.729 60.581C850.141 54.28 842.401 53.27 836.229 53.27C823.905 53.27 814.87 63.881 814.87 76.352C814.87 88.83 824.762 100.014 836.386 100.014C844.125 100.014 849.855 99.157 858.032 92.272L868.359 103.599ZM908.367 67.036H938.058V85.966H908.367V97.864H946.373V116.79H888.293V35.347H946.373V54.706H908.367V67.036ZM481.029 178.545C486.052 174.389 498.523 169.944 507.986 169.944C528.488 169.944 540.248 179.26 540.248 194.457C540.248 213.816 522.034 222.427 510.853 233.603H540.389V252.387H482.177V242.063C482.177 222.851 519.599 207.941 519.599 195.173C519.599 194.175 519.599 188.869 507.703 188.869C503.107 188.869 494.647 191.303 488.627 194.316L481.029 178.545ZM575.539 231.598C581.409 231.598 586.287 236.465 586.287 242.345C586.287 248.231 581.409 253.108 575.539 253.108C569.658 253.108 564.771 248.231 564.771 242.345C564.771 236.465 569.658 231.598 575.539 231.598ZM605.65 211.523C605.65 188.582 619.128 169.944 642.069 169.944C665.015 169.944 678.488 188.582 678.488 211.523C678.488 234.464 665.015 253.107 642.069 253.107C619.128 253.107 605.65 234.465 605.65 211.523ZM658.42 211.951C658.42 199.48 654.111 188.869 641.934 188.869C630.028 188.869 625.724 199.48 625.724 211.951C625.724 224.428 630.028 235.608 641.934 235.608C654.111 235.608 658.42 224.428 658.42 211.951ZM135.307 36.138H216.112V116.943H135.307V36.138ZM0.632019 36.138H81.437V116.943H0.632019V36.138ZM135.307 170.815H216.112V251.618H135.307V170.815ZM0.632019 170.815H81.437V251.618H0.632019V170.815ZM305.89 119.187C329.405 119.187 348.537 100.055 348.537 76.542C348.537 53.029 329.405 33.896 305.89 33.896C282.377 33.896 263.245 53.028 263.245 76.542C263.245 100.055 282.377 119.187 305.89 119.187ZM305.89 45.114C323.221 45.114 337.318 59.216 337.318 76.542C337.318 93.866 323.221 107.967 305.89 107.967C288.558 107.967 274.465 93.865 274.465 76.542C274.465 59.216 288.559 45.114 305.89 45.114ZM305.89 253.861C329.405 253.861 348.537 234.732 348.537 211.216C348.537 187.7 329.405 168.57 305.89 168.57C282.377 168.57 263.245 187.7 263.245 211.216C263.245 234.732 282.377 253.861 305.89 253.861ZM305.89 179.791C323.221 179.791 337.318 193.893 337.318 211.217C337.318 228.54 323.221 242.637 305.89 242.637C288.558 242.637 274.465 228.54 274.465 211.217C274.465 193.893 288.559 179.791 305.89 179.791Z" fill="black"/>
</svg>
